<?xml version="1.0" encoding="UTF-8"?>
<svg width="14px" height="14px" viewBox="0 0 14 14" version="1.1" xmlns="http://www.w3.org/2000/svg" xmlns:xlink="http://www.w3.org/1999/xlink">
    <!-- Generator: Sketch 61 (89581) - https://sketch.com -->
    <title>英国</title>
    <desc>Created with Sketch.</desc>
    <g id="页面-1" stroke="none" stroke-width="1" fill="none" fill-rule="evenodd">
        <g id="切图" transform="translate(-1091.000000, -181.000000)" fill-rule="nonzero">
            <g id="英国" transform="translate(1091.000000, 181.000000)">
                <rect id="矩形" fill="#000000" opacity="0" x="0" y="0" width="14" height="14"></rect>
                <path d="M0,7 C0,10.8659932 3.13400675,14 7,14 C10.8659932,14 14,10.8659932 14,7 C14,3.13400675 10.8659932,0 7,0 C3.13400675,0 0,3.13400675 0,7 Z" id="路径" fill="#F0F0F0"></path>
                <path d="M1.44703125,2.73825781 C0.897175781,3.45365234 0.4825625,4.27820313 0.241144531,5.17395703 L3.88273047,5.17395703 L1.44703125,2.73825781 Z M13.7588555,5.17395703 C13.5174375,4.27823047 13.1027969,3.45367969 12.5529688,2.73828516 L10.1173242,5.17395703 L13.7588555,5.17395703 L13.7588555,5.17395703 Z M0.241144531,8.826125 C0.482589844,9.72185156 0.897203125,10.5464023 1.44703125,11.2617695 L3.88264844,8.826125 L0.241144531,8.826125 Z M11.2617422,1.44705859 C10.5463477,0.897203125 9.72182422,0.482589844 8.82607031,0.241144531 L8.82607031,3.88270313 L11.2617422,1.44705859 L11.2617422,1.44705859 Z M2.73825781,12.5529414 C3.45365234,13.1027969 4.27820313,13.5174102 5.17392969,13.7588555 L5.17392969,10.1173242 L2.73825781,12.5529414 Z M5.17390234,0.241144531 C4.27817578,0.482589844 3.453625,0.897203125 2.73825781,1.44703125 L5.17390234,3.88267578 L5.17390234,0.241144531 Z M8.82609766,13.7588555 C9.72182422,13.5174102 10.546375,13.1027969 11.2617422,12.5529688 L8.82609766,10.1173242 L8.82609766,13.7588555 Z M10.1173242,8.826125 L12.5529687,11.2617969 C13.1027969,10.5464297 13.5174375,9.72185156 13.7588555,8.826125 L10.1173242,8.826125 L10.1173242,8.826125 Z" id="形状" fill="#0052B4"></path>
                <path d="M13.9407461,6.08696484 L7.9130625,6.08696484 L7.9130625,0.0592539062 C7.61030706,0.0198079506 7.30531433,0 7,0 C6.69469467,0 6.38971086,0.0198052777 6.08696484,0.0592539062 L6.08696484,6.0869375 L0.0592539062,6.0869375 C0.0198079506,6.38969294 0,6.69468567 0,7 C0,7.30950391 0.02034375,7.61416797 0.0592539062,7.91303516 L6.0869375,7.91303516 L6.0869375,13.9407461 C6.69307313,14.0197512 7.30689952,14.0197512 7.91303516,13.9407461 L7.91303516,7.9130625 L13.9407461,7.9130625 C13.9801938,7.61030723 14,7.30531439 14,7 C14,6.69055078 13.9796562,6.38583203 13.9407461,6.08696484 Z" id="路径" fill="#D80027"></path>
                <path d="M8.82609766,8.82609766 L11.9497383,11.9497656 C12.0933363,11.8059955 12.2306219,11.656056 12.361207,11.5003711 L9.68693359,8.82609766 L8.82609766,8.82609766 L8.82609766,8.82609766 Z M5.17390234,8.826125 L5.17384766,8.826125 L2.05023438,11.9497383 C2.19400452,12.0933363 2.34394401,12.2306219 2.49962891,12.361207 L5.17390234,9.68687891 L5.17390234,8.826125 L5.17390234,8.826125 Z M5.17390234,5.17395703 L5.17390234,5.17390234 L2.05026172,2.05023438 C1.90666368,2.19400452 1.76937805,2.34394401 1.63879297,2.49962891 L4.31309375,5.17395703 L5.17390234,5.17395703 L5.17390234,5.17395703 Z M8.82609766,5.17395703 L11.9497656,2.05026172 C11.8060022,1.90666532 11.6560624,1.76938851 11.5003711,1.63882031 L8.82609766,4.31312109 L8.82609766,5.17395703 Z" id="形状" fill="#D80027"></path>
            </g>
        </g>
    </g>
</svg>