<?xml version="1.0" encoding="UTF-8"?>
<svg width="16px" height="16px" viewBox="0 0 16 16" version="1.1" xmlns="http://www.w3.org/2000/svg" xmlns:xlink="http://www.w3.org/1999/xlink">
    <!-- Generator: Sketch 61 (89581) - https://sketch.com -->
    <title>导入</title>
    <desc>Created with Sketch.</desc>
    <g id="页面-1" stroke="none" stroke-width="1" fill="none" fill-rule="evenodd">
        <g id="切图" transform="translate(-979.000000, -371.000000)">
            <g id="导入" transform="translate(979.000000, 371.000000)">
                <rect id="矩形" x="0" y="0" width="16" height="16"></rect>
                <path d="M15,8.65606135 L15,13.6363636 C15,14.3894792 14.3284271,15 13.5,15 L2.5,15 C1.67157288,15 1,14.3894792 1,13.6363636 L1,6.36363636 C1,5.6105208 1.67157288,5 2.5,5 L4.22387695,5" id="路径" stroke="#FFFFFF" stroke-width="1.5" stroke-linecap="round"></path>
                <polyline id="路径-2" stroke="#FFFFFF" stroke-width="1.5" stroke-linecap="round" stroke-linejoin="round" transform="translate(13.107849, 4.113264) rotate(-135.000000) translate(-13.107849, -4.113264) " points="11.6078491 2.6132637 11.6078491 5.6132637 14.6078491 5.6132637"></polyline>
                <path d="M7.00146484,7.99194336 L7.00146484,5.1132637 C7.00146484,4.56097895 7.44918009,4.1132637 8.00146484,4.1132637 L14.6262817,4.1132637 L14.6262817,4.1132637" id="路径" stroke="#FFFFFF" stroke-width="1.5" stroke-linecap="round"></path>
            </g>
        </g>
    </g>
</svg>