<?xml version="1.0" encoding="UTF-8"?>
<svg width="16px" height="16px" viewBox="0 0 16 16" version="1.1" xmlns="http://www.w3.org/2000/svg" xmlns:xlink="http://www.w3.org/1999/xlink">
    <!-- Generator: Sketch 61 (89581) - https://sketch.com -->
    <title>重置密码</title>
    <desc>Created with Sketch.</desc>
    <g id="页面-1" stroke="none" stroke-width="1" fill="none" fill-rule="evenodd">
        <g id="切图" transform="translate(-979.000000, -560.000000)">
            <g id="重置密码" transform="translate(979.000000, 560.000000)">
                <rect id="矩形" x="0" y="0" width="16" height="16"></rect>
                <polyline id="路径-12" stroke="#FFFFFF" stroke-width="1.5" stroke-linecap="round" stroke-linejoin="round" transform="translate(13.660339, 3.994202) rotate(-345.000000) translate(-13.660339, -3.994202) " points="12.4103394 5.24420166 14.9103394 5.24420166 14.9103394 2.74420166"></polyline>
                <path d="M14.3372932,5.02310556 C13.2185856,2.64570896 10.8014808,1 8,1 C4.13400675,1 1,4.13400675 1,8 C1,11.8659932 4.13400675,15 8,15 C10.7897217,15 13.1982875,13.3680776 14.3231375,11.0067926" id="路径" stroke="#FFFFFF" stroke-width="1.5" stroke-linecap="round"></path>
                <path d="M8,4 C9.1045695,4 10,4.8954305 10,6 L10,7 L10,7 L6,7 L6,6 C6,4.8954305 6.8954305,4 8,4 Z" id="矩形" stroke="#FFFFFF" stroke-width="1.5"></path>
                <rect id="矩形" stroke="#FFFFFF" stroke-width="1.5" x="5" y="7" width="6" height="5" rx="1"></rect>
            </g>
        </g>
    </g>
</svg>