<?xml version="1.0" encoding="UTF-8"?>
<svg width="14px" height="14px" viewBox="0 0 14 14" version="1.1" xmlns="http://www.w3.org/2000/svg" xmlns:xlink="http://www.w3.org/1999/xlink">
    <!-- Generator: Sketch 61 (89581) - https://sketch.com -->
    <title>中国</title>
    <desc>Created with Sketch.</desc>
    <g id="页面-1" stroke="none" stroke-width="1" fill="none" fill-rule="evenodd">
        <g id="切图" transform="translate(-1091.000000, -101.000000)" fill-rule="nonzero">
            <g id="中国" transform="translate(1091.000000, 101.000000)">
                <rect id="矩形" x="0" y="0" width="14" height="14"></rect>
                <path d="M0.205611977,5.35294753 C0.872851316,2.5954295 3.13750527,0.513657724 5.93981082,0.0818140167 C8.74211638,-0.350029691 11.5277687,0.953474711 12.9931995,3.38234187 C14.4586303,5.81120903 14.3139727,8.88500142 12.6269203,11.1653132 C10.939868,13.445625 8.04412527,14.4814034 5.29477812,13.7879475 C3.50053658,13.3473097 1.9553785,12.2101137 1.00051464,10.6274819 C0.0456507857,9.04484996 -0.240370387,7.1469717 0.205611977,5.35294753" id="路径" fill="#E72D14"></path>
                <path d="M7.4,6.792 L7.104,7.152 L6.672,7 L6.92,7.392 L6.624,7.752 L7.072,7.64 L7.328,8.032 L7.328,7.568 L7.784,7.448 L7.352,7.28 L7.4,6.792 Z M9.128,5.816 L8.664,5.816 L8.52,5.4 L8.376,5.848 L7.912,5.848 L8.288,6.12 L8.144,6.568 L8.52,6.288 L8.896,6.568 L8.752,6.12 L9.128,5.816 Z M8.368,4.104 L8.44,4.6 L8.656,4.184 L9.12,4.256 L8.784,3.928 L9,3.512 L8.6,3.688 L8.272,3.36 L8.344,3.824 L7.928,4.032 L8.368,4.104 Z M7.408,1.968 L7.112,2.328 L6.672,2.152 L6.928,2.552 L6.624,2.904 L7.08,2.792 L7.328,3.184 L7.328,2.72 L7.8,2.608 L7.368,2.432 L7.408,1.968 Z M4.152,4.024 L3.712,2.672 L3.272,4.024 L1.856,4.024 L3,4.856 L2.56,6.2 L3.712,5.4 L4.856,6.2 L4.416,4.856 L5.568,4.056 L4.152,4.024 Z" id="形状" fill="#FFD700"></path>
            </g>
        </g>
    </g>
</svg>